<?xml version="1.0" encoding="UTF-8" standalone="no" ?>
<!DOCTYPE svg PUBLIC "-//W3C//DTD SVG 1.1//EN" "http://www.w3.org/Graphics/SVG/1.1/DTD/svg11.dtd">
<svg xmlns="http://www.w3.org/2000/svg" xmlns:xlink="http://www.w3.org/1999/xlink" version="1.1" width="1080" height="1080" viewBox="0 0 1080 1080" xml:space="preserve">
<desc>Created with Fabric.js 5.2.4</desc>
<defs>
</defs>
<g transform="matrix(1 0 0 1 540 540)" id="83dc611c-4a80-45ae-96b3-9fbaad421ec6"  >
<rect style="stroke: none; stroke-width: 1; stroke-dasharray: none; stroke-linecap: butt; stroke-dashoffset: 0; stroke-linejoin: miter; stroke-miterlimit: 4; fill: rgb(255,255,255); fill-rule: nonzero; opacity: 1; visibility: hidden;" vector-effect="non-scaling-stroke"  x="-540" y="-540" rx="0" ry="0" width="1080" height="1080" />
</g>
<g transform="matrix(1 0 0 1 540 540)" id="b73aefa3-afb3-4b13-8c89-033a99c80d79"  >
</g>
<g transform="matrix(1 0 0 1 138 540)"  >
<g style="" vector-effect="non-scaling-stroke"   >
		<g transform="matrix(1.49 0 0 1.49 -10.31 131.15)"  >
<path style="stroke: none; stroke-width: 1; stroke-dasharray: none; stroke-linecap: butt; stroke-dashoffset: 0; stroke-linejoin: miter; stroke-miterlimit: 4; fill: rgb(0,0,0); fill-rule: nonzero; opacity: 1;" vector-effect="non-scaling-stroke"  transform=" translate(-261.35, -356.22)" d="M 399.236 351.096 C 405.337 334.596 407.837 315.596 404.736 295.396 C 410.837 284.99600000000004 413.936 272.796 410.837 258.696 C 399.837 204.79600000000002 333.137 185.89600000000002 286.637 178.49600000000004 C 236.437 170.49600000000004 170.337 179.09600000000003 147.737 232.99600000000004 C 145.93699999999998 237.29600000000005 144.637 240.99600000000004 144.037 245.19600000000003 C 130.537 240.89600000000002 115.837 240.89600000000002 103.037 245.19600000000003 C 101.23700000000001 245.19600000000003 99.93700000000001 245.19600000000003 98.137 245.79600000000002 C 78.537 248.89600000000002 63.237 264.79600000000005 55.937 282.49600000000004 C 48.637 300.196 49.836999999999996 320.396 62.637 335.09700000000004 C 69.937 343.09700000000004 81.037 347.99600000000004 91.437 349.797 C 103.03699999999999 351.59700000000004 121.437 352.89700000000005 132.437 346.696 C 134.83700000000002 346.096 136.73700000000002 345.49600000000004 138.537 344.297 C 140.33700000000002 349.196 142.237 354.696 144.637 359.59700000000004 C 91.437 360.797 47.337 415.297 82.837 464.89700000000005 C 117.737 513.197 199.137 521.197 252.937 528.4970000000001 C 310.437 535.7980000000001 415.737 552.9970000000001 454.237 493.59800000000007 C 491.636 436.195 464.736 361.495 399.236 351.096 z M 133.636 308.896 C 125.636 308.896 117.73599999999999 308.296 110.336 304.596 C 108.536 303.995 106.636 302.196 105.43599999999999 300.896 C 104.836 299.696 104.836 299.696 105.43599999999999 297.196 C 109.136 285.596 125.036 284.297 136.036 281.297 C 134.236 290.495 133.036 299.695 133.636 308.896 z M 240.136 197.496 C 276.236 194.39600000000002 314.236 202.996 347.236 218.29600000000002 C 369.236 228.09600000000003 393.736 250.69600000000003 389.436 274.596 C 387.037 275.796 385.736 278.296 385.13599999999997 281.296 C 385.13599999999997 282.495 385.13599999999997 284.396 385.13599999999997 285.596 C 383.936 287.995 382.736 289.896 380.83599999999996 292.296 C 371.03599999999994 303.896 354.53599999999994 308.796 337.33599999999996 309.995 C 333.03599999999994 309.995 328.73499999999996 310.596 325.13599999999997 310.596 C 319.63599999999997 310.596 314.13599999999997 310.596 309.236 310.596 C 336.13599999999997 300.796 356.337 281.796 337.436 252.496 C 311.13599999999997 210.89600000000002 240.736 208.996 204.03599999999997 234.096 C 199.13599999999997 237.196 197.93599999999998 242.696 200.33599999999998 248.196 C 220.53599999999997 288.596 257.836 294.696 297.036 276.996 C 306.836 272.69599999999997 300.136 254.99599999999998 289.735 259.296 C 264.035 269.096 240.13500000000002 269.69599999999997 223.63500000000002 247.096 C 253.63500000000002 231.796 292.135 237.296 317.83500000000004 260.596 C 346.63500000000005 286.296 277.43500000000006 297.296 264.63500000000005 297.896 C 240.73500000000004 298.49600000000004 216.93500000000006 291.196 196.13500000000005 280.796 C 131.136 248.295 199.036 201.195 240.136 197.496 z M 262.736 440.495 C 209.536 442.895 163.636 423.395 139.136 376.895 C 144.036 375.09499999999997 148.33599999999998 373.195 152.636 371.995 C 173.436 403.796 209.536 427.096 252.43599999999998 432.596 C 309.33599999999996 439.896 363.836 414.896 390.13599999999997 370.796 C 391.936 371.396 393.83599999999996 371.995 395.03599999999994 372.596 C 374.136 422.096 311.736 437.995 262.736 440.495 z" stroke-linecap="round" />
</g>
		<g transform="matrix(1.49 0 0 1.49 48.43 -284.23)"  >
<path style="stroke: none; stroke-width: 1; stroke-dasharray: none; stroke-linecap: butt; stroke-dashoffset: 0; stroke-linejoin: miter; stroke-miterlimit: 4; fill: rgb(0,0,0); fill-rule: nonzero; opacity: 1;" vector-effect="non-scaling-stroke"  transform=" translate(-300.74, -77.64)" d="M 299.436 0.396 C 292.13599999999997 -2.004 288.436 7.096 292.736 11.996 C 303.13599999999997 24.896 318.436 33.396 319.037 51.796 C 319.637 74.396 286.037 86.696 269.436 92.79599999999999 C 265.13599999999997 93.996 261.436 98.29599999999999 262.13599999999997 102.59599999999999 C 264.53599999999994 129.49599999999998 278.03599999999994 141.196 300.03599999999994 153.99599999999998 C 309.23499999999996 159.49599999999998 315.93499999999995 145.99599999999998 308.03599999999994 140.49599999999998 C 295.13599999999997 131.296 286.03599999999994 124.59599999999998 282.93499999999995 109.89599999999999 C 307.43499999999995 100.69599999999998 331.23499999999996 86.59599999999999 338.03599999999994 60.295999999999985 C 345.336 34.695 322.736 7.195 299.436 0.396 z" stroke-linecap="round" />
</g>
		<g transform="matrix(1.49 0 0 1.49 -160.92 -257.4)"  >
<path style="stroke: none; stroke-width: 1; stroke-dasharray: none; stroke-linecap: butt; stroke-dashoffset: 0; stroke-linejoin: miter; stroke-miterlimit: 4; fill: rgb(0,0,0); fill-rule: nonzero; opacity: 1;" vector-effect="non-scaling-stroke"  transform=" translate(-160.34, -95.63)" d="M 216.236 141.795 C 197.83599999999998 136.295 195.43599999999998 129.595 194.236 112.39499999999998 C 193.636 103.79499999999999 190.536 95.89499999999998 183.236 89.79499999999999 C 161.83599999999998 72.695 135.536 40.194999999999986 106.73599999999999 38.39499999999999 C 100.03599999999999 37.79499999999999 98.73599999999999 45.694999999999986 101.83599999999998 49.99499999999999 C 112.23599999999999 62.89499999999999 130.636 70.79499999999999 144.036 80.595 C 153.836 87.895 172.836 99.595 175.836 111.795 C 178.23600000000002 121.595 177.63600000000002 130.195 183.13600000000002 138.695 C 189.836 149.695 203.336 151.595 214.93600000000004 152.795 C 221.736 154.096 222.336 143.695 216.236 141.795 z" stroke-linecap="round" />
</g>
		<g transform="matrix(1.49 0 0 1.49 248.3 -223.53)"  >
<path style="stroke: none; stroke-width: 1; stroke-dasharray: none; stroke-linecap: butt; stroke-dashoffset: 0; stroke-linejoin: miter; stroke-miterlimit: 4; fill: rgb(0,0,0); fill-rule: nonzero; opacity: 1;" vector-effect="non-scaling-stroke"  transform=" translate(-434.79, -118.35)" d="M 476.336 67.195 C 472.036 61.09499999999999 462.836 63.49499999999999 462.235 70.895 C 461.635 91.095 465.935 108.79499999999999 462.836 127.79499999999999 C 441.43600000000004 120.49499999999999 417.536 124.695 395.536 119.79499999999999 C 390.636 118.59499999999998 383.935 122.195 384.536 128.39499999999998 C 385.735 141.89499999999998 391.235 153.49499999999998 392.536 166.295 C 393.735 174.89499999999998 406.636 175.49499999999998 406.636 166.295 C 406.636 157.095 404.23600000000005 147.89499999999998 402.93600000000004 139.39499999999998 C 423.73600000000005 142.49499999999998 446.43600000000004 138.795 464.73600000000005 149.195 C 470.23600000000005 152.295 476.93600000000004 149.195 478.23600000000005 143.695 C 485.537 122.195 489.736 86.695 476.336 67.195 z" stroke-linecap="round" />
</g>
</g>
</g>
<g transform="matrix(1 0 0 1 812.44 674.66)" style="" id="1b69bd24-e9a0-4a4f-908a-ec79d7ac8431"  >
		<text xml:space="preserve" font-family="Raleway" font-size="200" font-style="normal" font-weight="900" style="stroke: none; stroke-width: 1; stroke-dasharray: none; stroke-linecap: butt; stroke-dashoffset: 0; stroke-linejoin: miter; stroke-miterlimit: 4; fill: rgb(0,0,0); fill-rule: nonzero; opacity: 1; white-space: pre;" ><tspan x="-345.4" y="-50.17" >Roast\</tspan><tspan x="-340.7" y="175.83" style="white-space: pre; "> Rails/</tspan></text>
</g>
</svg>